<mxfile host="app.diagrams.net" agent="Mozilla/5.0 (Windows NT 10.0; Win64; x64) AppleWebKit/537.36 (KHTML, like Gecko) Chrome/137.0.0.0 Safari/537.36" version="27.1.1">
  <diagram id="C5RBs43oDa-KdzZeNtuy" name="Page-1">
    <mxGraphModel dx="2765" dy="1122" grid="1" gridSize="10" guides="1" tooltips="1" connect="1" arrows="1" fold="1" page="1" pageScale="1" pageWidth="827" pageHeight="1169" math="0" shadow="0">
      <root>
        <mxCell id="WIyWlLk6GJQsqaUBKTNV-0" />
        <mxCell id="WIyWlLk6GJQsqaUBKTNV-1" parent="WIyWlLk6GJQsqaUBKTNV-0" />
        <mxCell id="8D5OD1Dsjr757IrfoJvk-187" style="edgeStyle=orthogonalEdgeStyle;rounded=0;orthogonalLoop=1;jettySize=auto;html=1;entryX=0;entryY=0.5;entryDx=0;entryDy=0;" parent="WIyWlLk6GJQsqaUBKTNV-1" source="8D5OD1Dsjr757IrfoJvk-73" target="8D5OD1Dsjr757IrfoJvk-78" edge="1">
          <mxGeometry relative="1" as="geometry" />
        </mxCell>
        <mxCell id="8D5OD1Dsjr757IrfoJvk-73" value="Admin loged in and select section &quot;Edit programming language&quot;" style="rounded=1;whiteSpace=wrap;html=1;fontSize=12;glass=0;strokeWidth=1;shadow=0;" parent="WIyWlLk6GJQsqaUBKTNV-1" vertex="1">
          <mxGeometry x="70" y="30" width="120" height="70" as="geometry" />
        </mxCell>
        <mxCell id="8D5OD1Dsjr757IrfoJvk-74" style="edgeStyle=orthogonalEdgeStyle;rounded=0;orthogonalLoop=1;jettySize=auto;html=1;entryX=0.5;entryY=0;entryDx=0;entryDy=0;" parent="WIyWlLk6GJQsqaUBKTNV-1" source="8D5OD1Dsjr757IrfoJvk-78" target="8D5OD1Dsjr757IrfoJvk-81" edge="1">
          <mxGeometry relative="1" as="geometry" />
        </mxCell>
        <mxCell id="8D5OD1Dsjr757IrfoJvk-75" value="Yes" style="edgeLabel;html=1;align=center;verticalAlign=middle;resizable=0;points=[];" parent="8D5OD1Dsjr757IrfoJvk-74" vertex="1" connectable="0">
          <mxGeometry x="-0.1874" relative="1" as="geometry">
            <mxPoint as="offset" />
          </mxGeometry>
        </mxCell>
        <mxCell id="8D5OD1Dsjr757IrfoJvk-76" style="edgeStyle=orthogonalEdgeStyle;rounded=0;orthogonalLoop=1;jettySize=auto;html=1;exitX=1;exitY=0.5;exitDx=0;exitDy=0;entryX=0;entryY=0.5;entryDx=0;entryDy=0;" parent="WIyWlLk6GJQsqaUBKTNV-1" source="8D5OD1Dsjr757IrfoJvk-78" target="8D5OD1Dsjr757IrfoJvk-79" edge="1">
          <mxGeometry relative="1" as="geometry" />
        </mxCell>
        <mxCell id="8D5OD1Dsjr757IrfoJvk-77" value="No" style="edgeLabel;html=1;align=center;verticalAlign=middle;resizable=0;points=[];" parent="8D5OD1Dsjr757IrfoJvk-76" vertex="1" connectable="0">
          <mxGeometry x="-0.056" y="2" relative="1" as="geometry">
            <mxPoint as="offset" />
          </mxGeometry>
        </mxCell>
        <mxCell id="8D5OD1Dsjr757IrfoJvk-78" value="Connection&lt;div&gt;&amp;nbsp;to server?&lt;/div&gt;" style="rhombus;whiteSpace=wrap;html=1;shadow=0;fontFamily=Helvetica;fontSize=12;align=center;strokeWidth=1;spacing=6;spacingTop=-4;" parent="WIyWlLk6GJQsqaUBKTNV-1" vertex="1">
          <mxGeometry x="259" y="30" width="121" height="70" as="geometry" />
        </mxCell>
        <mxCell id="8D5OD1Dsjr757IrfoJvk-79" value="Error message" style="rounded=1;whiteSpace=wrap;html=1;fontSize=12;glass=0;strokeWidth=1;shadow=0;" parent="WIyWlLk6GJQsqaUBKTNV-1" vertex="1">
          <mxGeometry x="495" y="45" width="120" height="40" as="geometry" />
        </mxCell>
        <mxCell id="8D5OD1Dsjr757IrfoJvk-80" style="edgeStyle=orthogonalEdgeStyle;rounded=0;orthogonalLoop=1;jettySize=auto;html=1;entryX=0.5;entryY=0;entryDx=0;entryDy=0;" parent="WIyWlLk6GJQsqaUBKTNV-1" source="8D5OD1Dsjr757IrfoJvk-81" target="8D5OD1Dsjr757IrfoJvk-83" edge="1">
          <mxGeometry relative="1" as="geometry" />
        </mxCell>
        <mxCell id="8D5OD1Dsjr757IrfoJvk-81" value="&lt;span style=&quot;font-size: 9px;&quot;&gt;Request to server with DB to the table &quot;languages&quot;&lt;/span&gt;" style="shape=process;whiteSpace=wrap;html=1;backgroundOutline=1;" parent="WIyWlLk6GJQsqaUBKTNV-1" vertex="1">
          <mxGeometry x="259" y="150" width="120" height="60" as="geometry" />
        </mxCell>
        <mxCell id="8D5OD1Dsjr757IrfoJvk-82" style="edgeStyle=orthogonalEdgeStyle;rounded=0;orthogonalLoop=1;jettySize=auto;html=1;entryX=0.5;entryY=0;entryDx=0;entryDy=0;" parent="WIyWlLk6GJQsqaUBKTNV-1" source="8D5OD1Dsjr757IrfoJvk-83" target="8D5OD1Dsjr757IrfoJvk-85" edge="1">
          <mxGeometry relative="1" as="geometry" />
        </mxCell>
        <mxCell id="8D5OD1Dsjr757IrfoJvk-83" value="&lt;font style=&quot;font-size: 9px;&quot;&gt;Select all languages from table &lt;b&gt;&quot;&lt;font style=&quot;color: rgb(51, 153, 255);&quot;&gt;languages&lt;/font&gt;&quot;&lt;/b&gt;&lt;/font&gt;" style="shape=process;whiteSpace=wrap;html=1;backgroundOutline=1;" parent="WIyWlLk6GJQsqaUBKTNV-1" vertex="1">
          <mxGeometry x="372.5" y="370" width="115" height="50" as="geometry" />
        </mxCell>
        <mxCell id="8D5OD1Dsjr757IrfoJvk-84" style="edgeStyle=orthogonalEdgeStyle;rounded=0;orthogonalLoop=1;jettySize=auto;html=1;entryX=0.5;entryY=0;entryDx=0;entryDy=0;" parent="WIyWlLk6GJQsqaUBKTNV-1" source="8D5OD1Dsjr757IrfoJvk-85" target="8D5OD1Dsjr757IrfoJvk-87" edge="1">
          <mxGeometry relative="1" as="geometry" />
        </mxCell>
        <mxCell id="8D5OD1Dsjr757IrfoJvk-85" value="&lt;font style=&quot;font-size: 9px;&quot;&gt;Send response with &lt;font style=&quot;color: rgb(255, 153, 51);&quot;&gt;array of languages&lt;/font&gt;&amp;nbsp;&lt;/font&gt;&lt;div&gt;&lt;font style=&quot;font-size: 9px;&quot;&gt;to the browser&lt;/font&gt;&lt;/div&gt;" style="shape=process;whiteSpace=wrap;html=1;backgroundOutline=1;" parent="WIyWlLk6GJQsqaUBKTNV-1" vertex="1">
          <mxGeometry x="365" y="450" width="130" height="50" as="geometry" />
        </mxCell>
        <mxCell id="8D5OD1Dsjr757IrfoJvk-86" value="" style="edgeStyle=orthogonalEdgeStyle;rounded=0;orthogonalLoop=1;jettySize=auto;html=1;" parent="WIyWlLk6GJQsqaUBKTNV-1" source="8D5OD1Dsjr757IrfoJvk-87" target="8D5OD1Dsjr757IrfoJvk-89" edge="1">
          <mxGeometry relative="1" as="geometry" />
        </mxCell>
        <mxCell id="8D5OD1Dsjr757IrfoJvk-87" value="&lt;font style=&quot;font-size: 9px;&quot;&gt;Form the dropdown menu with languages&lt;/font&gt;" style="shape=process;whiteSpace=wrap;html=1;backgroundOutline=1;" parent="WIyWlLk6GJQsqaUBKTNV-1" vertex="1">
          <mxGeometry x="375.25" y="529.9999999999999" width="110" height="50" as="geometry" />
        </mxCell>
        <mxCell id="8D5OD1Dsjr757IrfoJvk-88" style="edgeStyle=orthogonalEdgeStyle;rounded=0;orthogonalLoop=1;jettySize=auto;html=1;entryX=0.5;entryY=0;entryDx=0;entryDy=0;" parent="WIyWlLk6GJQsqaUBKTNV-1" source="8D5OD1Dsjr757IrfoJvk-89" target="8D5OD1Dsjr757IrfoJvk-98" edge="1">
          <mxGeometry relative="1" as="geometry" />
        </mxCell>
        <mxCell id="8D5OD1Dsjr757IrfoJvk-89" value="Admin chosed programming language" style="whiteSpace=wrap;html=1;rounded=1;fontSize=9;" parent="WIyWlLk6GJQsqaUBKTNV-1" vertex="1">
          <mxGeometry x="369" y="609.9999999999999" width="122" height="44.18" as="geometry" />
        </mxCell>
        <mxCell id="8D5OD1Dsjr757IrfoJvk-90" style="edgeStyle=orthogonalEdgeStyle;rounded=0;orthogonalLoop=1;jettySize=auto;html=1;entryX=0.5;entryY=0;entryDx=0;entryDy=0;" parent="WIyWlLk6GJQsqaUBKTNV-1" source="8D5OD1Dsjr757IrfoJvk-91" target="8D5OD1Dsjr757IrfoJvk-103" edge="1">
          <mxGeometry relative="1" as="geometry" />
        </mxCell>
        <mxCell id="8D5OD1Dsjr757IrfoJvk-91" value="&lt;font style=&quot;font-size: 9px;&quot;&gt;Send response with &lt;font style=&quot;color: rgb(255, 153, 51);&quot;&gt;array of topics&lt;/font&gt;&amp;nbsp;and&amp;nbsp;&lt;span style=&quot;color: rgb(255, 153, 51);&quot;&gt;array of languages_topic&amp;nbsp;&lt;/span&gt;to the browser&lt;/font&gt;" style="shape=process;whiteSpace=wrap;html=1;backgroundOutline=1;" parent="WIyWlLk6GJQsqaUBKTNV-1" vertex="1">
          <mxGeometry x="86" y="820" width="188" height="50" as="geometry" />
        </mxCell>
        <mxCell id="8D5OD1Dsjr757IrfoJvk-92" style="edgeStyle=orthogonalEdgeStyle;rounded=0;orthogonalLoop=1;jettySize=auto;html=1;entryX=0.5;entryY=0;entryDx=0;entryDy=0;" parent="WIyWlLk6GJQsqaUBKTNV-1" source="8D5OD1Dsjr757IrfoJvk-93" target="8D5OD1Dsjr757IrfoJvk-134" edge="1">
          <mxGeometry relative="1" as="geometry" />
        </mxCell>
        <mxCell id="8D5OD1Dsjr757IrfoJvk-93" value="&lt;font style=&quot;font-size: 9px;&quot;&gt;Form the list with ALL possible topics and match as Checked the topics from array of languages_topic&lt;/font&gt;" style="shape=process;whiteSpace=wrap;html=1;backgroundOutline=1;" parent="WIyWlLk6GJQsqaUBKTNV-1" vertex="1">
          <mxGeometry x="83" y="960" width="194" height="50" as="geometry" />
        </mxCell>
        <mxCell id="8D5OD1Dsjr757IrfoJvk-94" style="edgeStyle=orthogonalEdgeStyle;rounded=0;orthogonalLoop=1;jettySize=auto;html=1;entryX=0.5;entryY=0;entryDx=0;entryDy=0;exitX=0;exitY=0.5;exitDx=0;exitDy=0;" parent="WIyWlLk6GJQsqaUBKTNV-1" source="8D5OD1Dsjr757IrfoJvk-98" target="8D5OD1Dsjr757IrfoJvk-100" edge="1">
          <mxGeometry relative="1" as="geometry">
            <Array as="points">
              <mxPoint x="180" y="716" />
            </Array>
          </mxGeometry>
        </mxCell>
        <mxCell id="8D5OD1Dsjr757IrfoJvk-95" value="&lt;b style=&quot;background-color: rgb(0, 204, 0);&quot;&gt;EDIT&lt;/b&gt;" style="edgeLabel;html=1;align=center;verticalAlign=middle;resizable=0;points=[];" parent="8D5OD1Dsjr757IrfoJvk-94" vertex="1" connectable="0">
          <mxGeometry x="-0.3058" y="-2" relative="1" as="geometry">
            <mxPoint x="-12" y="2" as="offset" />
          </mxGeometry>
        </mxCell>
        <mxCell id="8D5OD1Dsjr757IrfoJvk-96" style="edgeStyle=orthogonalEdgeStyle;rounded=0;orthogonalLoop=1;jettySize=auto;html=1;entryX=0.5;entryY=0;entryDx=0;entryDy=0;" parent="WIyWlLk6GJQsqaUBKTNV-1" source="8D5OD1Dsjr757IrfoJvk-98" target="8D5OD1Dsjr757IrfoJvk-101" edge="1">
          <mxGeometry relative="1" as="geometry" />
        </mxCell>
        <mxCell id="8D5OD1Dsjr757IrfoJvk-97" value="&lt;span style=&quot;background-color: rgb(0, 204, 0);&quot;&gt;&lt;b&gt;DELETE&lt;/b&gt;&lt;/span&gt;" style="edgeLabel;html=1;align=center;verticalAlign=middle;resizable=0;points=[];" parent="8D5OD1Dsjr757IrfoJvk-96" vertex="1" connectable="0">
          <mxGeometry x="-0.2555" y="1" relative="1" as="geometry">
            <mxPoint as="offset" />
          </mxGeometry>
        </mxCell>
        <mxCell id="8D5OD1Dsjr757IrfoJvk-98" value="&lt;span style=&quot;font-size: 9px;&quot;&gt;Admin selected button&lt;/span&gt;" style="rhombus;whiteSpace=wrap;html=1;" parent="WIyWlLk6GJQsqaUBKTNV-1" vertex="1">
          <mxGeometry x="370.25" y="682" width="120" height="68" as="geometry" />
        </mxCell>
        <mxCell id="8D5OD1Dsjr757IrfoJvk-99" style="edgeStyle=orthogonalEdgeStyle;rounded=0;orthogonalLoop=1;jettySize=auto;html=1;exitX=0.5;exitY=1;exitDx=0;exitDy=0;entryX=0.5;entryY=0;entryDx=0;entryDy=0;" parent="WIyWlLk6GJQsqaUBKTNV-1" source="8D5OD1Dsjr757IrfoJvk-100" target="8D5OD1Dsjr757IrfoJvk-91" edge="1">
          <mxGeometry relative="1" as="geometry">
            <mxPoint x="210" y="840" as="targetPoint" />
            <Array as="points">
              <mxPoint x="180" y="820" />
              <mxPoint x="180" y="820" />
            </Array>
          </mxGeometry>
        </mxCell>
        <mxCell id="8D5OD1Dsjr757IrfoJvk-100" value="&lt;span style=&quot;font-size: 9px;&quot;&gt;Request to the server with DB to the tables &quot;&lt;font style=&quot;color: rgb(51, 153, 255);&quot;&gt;&lt;b&gt;topics&lt;/b&gt;&lt;/font&gt;&quot; and &quot;&lt;font style=&quot;color: rgb(51, 153, 255);&quot;&gt;&lt;b&gt;languages_topic&lt;/b&gt;&lt;/font&gt;&quot; with&amp;nbsp;&lt;/span&gt;&lt;div style=&quot;font-size: 9px;&quot;&gt;&lt;font style=&quot;color: rgb(255, 153, 51);&quot;&gt;language_id&lt;/font&gt;&lt;/div&gt;" style="shape=process;whiteSpace=wrap;html=1;backgroundOutline=1;" parent="WIyWlLk6GJQsqaUBKTNV-1" vertex="1">
          <mxGeometry x="70" y="750" width="220" height="50" as="geometry" />
        </mxCell>
        <mxCell id="8D5OD1Dsjr757IrfoJvk-101" value="&lt;span style=&quot;font-size: 9px;&quot;&gt;Request to the server with DB to the table &quot;&lt;font style=&quot;color: rgb(51, 153, 255);&quot;&gt;&lt;b&gt;languages_topic&lt;/b&gt;&lt;/font&gt;&quot;&lt;/span&gt;" style="shape=process;whiteSpace=wrap;html=1;backgroundOutline=1;" parent="WIyWlLk6GJQsqaUBKTNV-1" vertex="1">
          <mxGeometry x="530" y="750" width="120" height="60" as="geometry" />
        </mxCell>
        <mxCell id="8D5OD1Dsjr757IrfoJvk-102" style="edgeStyle=orthogonalEdgeStyle;rounded=0;orthogonalLoop=1;jettySize=auto;html=1;entryX=0.5;entryY=0;entryDx=0;entryDy=0;" parent="WIyWlLk6GJQsqaUBKTNV-1" source="8D5OD1Dsjr757IrfoJvk-103" target="8D5OD1Dsjr757IrfoJvk-93" edge="1">
          <mxGeometry relative="1" as="geometry" />
        </mxCell>
        <mxCell id="8D5OD1Dsjr757IrfoJvk-103" value="&lt;font style=&quot;font-size: 9px;&quot;&gt;Form the input field with value = name of selected programming language&lt;/font&gt;" style="shape=process;whiteSpace=wrap;html=1;backgroundOutline=1;" parent="WIyWlLk6GJQsqaUBKTNV-1" vertex="1">
          <mxGeometry x="95.5" y="890" width="169" height="50" as="geometry" />
        </mxCell>
        <mxCell id="8D5OD1Dsjr757IrfoJvk-104" style="edgeStyle=orthogonalEdgeStyle;rounded=0;orthogonalLoop=1;jettySize=auto;html=1;entryX=0.5;entryY=0;entryDx=0;entryDy=0;exitX=0;exitY=0.5;exitDx=0;exitDy=0;" parent="WIyWlLk6GJQsqaUBKTNV-1" source="8D5OD1Dsjr757IrfoJvk-106" target="8D5OD1Dsjr757IrfoJvk-108" edge="1">
          <mxGeometry relative="1" as="geometry" />
        </mxCell>
        <mxCell id="8D5OD1Dsjr757IrfoJvk-105" value="Yes" style="edgeLabel;html=1;align=center;verticalAlign=middle;resizable=0;points=[];" parent="8D5OD1Dsjr757IrfoJvk-104" vertex="1" connectable="0">
          <mxGeometry x="0.1988" y="2" relative="1" as="geometry">
            <mxPoint x="31" y="-2" as="offset" />
          </mxGeometry>
        </mxCell>
        <mxCell id="8D5OD1Dsjr757IrfoJvk-137" style="edgeStyle=orthogonalEdgeStyle;rounded=0;orthogonalLoop=1;jettySize=auto;html=1;entryX=0.5;entryY=0;entryDx=0;entryDy=0;exitX=1;exitY=0.5;exitDx=0;exitDy=0;" parent="WIyWlLk6GJQsqaUBKTNV-1" source="8D5OD1Dsjr757IrfoJvk-106" target="8D5OD1Dsjr757IrfoJvk-136" edge="1">
          <mxGeometry relative="1" as="geometry" />
        </mxCell>
        <mxCell id="8D5OD1Dsjr757IrfoJvk-138" value="No" style="edgeLabel;html=1;align=center;verticalAlign=middle;resizable=0;points=[];" parent="8D5OD1Dsjr757IrfoJvk-137" vertex="1" connectable="0">
          <mxGeometry x="-0.5635" y="2" relative="1" as="geometry">
            <mxPoint as="offset" />
          </mxGeometry>
        </mxCell>
        <mxCell id="8D5OD1Dsjr757IrfoJvk-139" value="&lt;font style=&quot;font-size: 9px; background-color: rgb(0, 204, 0);&quot;&gt;Topics also changed&lt;/font&gt;" style="edgeLabel;html=1;align=center;verticalAlign=middle;resizable=0;points=[];" parent="8D5OD1Dsjr757IrfoJvk-137" vertex="1" connectable="0">
          <mxGeometry x="0.4611" y="2" relative="1" as="geometry">
            <mxPoint as="offset" />
          </mxGeometry>
        </mxCell>
        <mxCell id="8D5OD1Dsjr757IrfoJvk-106" value="&lt;font style=&quot;font-size: 9px;&quot;&gt;Did admin select&amp;nbsp;&lt;b style=&quot;&quot;&gt;Edit&lt;/b&gt;&amp;nbsp;&lt;/font&gt;&lt;div&gt;&lt;font style=&quot;font-size: 9px;&quot;&gt;and&amp;nbsp;changed&amp;nbsp;&lt;span style=&quot;background-color: transparent; color: light-dark(rgb(0, 0, 0), rgb(255, 255, 255));&quot;&gt;only&amp;nbsp;&lt;/span&gt;&lt;/font&gt;&lt;div&gt;&lt;div&gt;&lt;font style=&quot;font-size: 9px;&quot;&gt;programming language&#39;s&amp;nbsp;&lt;/font&gt;&lt;/div&gt;&lt;div&gt;&lt;font style=&quot;font-size: 9px;&quot;&gt;name?&lt;/font&gt;&lt;/div&gt;&lt;/div&gt;&lt;/div&gt;" style="rhombus;whiteSpace=wrap;html=1;" parent="WIyWlLk6GJQsqaUBKTNV-1" vertex="1">
          <mxGeometry x="-50" y="1120" width="170" height="90" as="geometry" />
        </mxCell>
        <mxCell id="8D5OD1Dsjr757IrfoJvk-107" style="edgeStyle=orthogonalEdgeStyle;rounded=0;orthogonalLoop=1;jettySize=auto;html=1;entryX=0.5;entryY=0;entryDx=0;entryDy=0;" parent="WIyWlLk6GJQsqaUBKTNV-1" source="8D5OD1Dsjr757IrfoJvk-108" target="8D5OD1Dsjr757IrfoJvk-113" edge="1">
          <mxGeometry relative="1" as="geometry" />
        </mxCell>
        <mxCell id="8D5OD1Dsjr757IrfoJvk-108" value="&lt;span style=&quot;font-size: 9px;&quot;&gt;Query to the DB to the table &quot;&lt;font style=&quot;color: rgb(51, 153, 255);&quot;&gt;&lt;b&gt;languages&lt;/b&gt;&lt;/font&gt;&quot; with the new name for &quot;language_name&quot;&lt;br&gt;&lt;/span&gt;" style="shape=process;whiteSpace=wrap;html=1;backgroundOutline=1;" parent="WIyWlLk6GJQsqaUBKTNV-1" vertex="1">
          <mxGeometry x="-201" y="1210" width="120" height="70" as="geometry" />
        </mxCell>
        <mxCell id="8D5OD1Dsjr757IrfoJvk-109" style="edgeStyle=orthogonalEdgeStyle;rounded=0;orthogonalLoop=1;jettySize=auto;html=1;entryX=0;entryY=0.5;entryDx=0;entryDy=0;" parent="WIyWlLk6GJQsqaUBKTNV-1" source="8D5OD1Dsjr757IrfoJvk-113" target="8D5OD1Dsjr757IrfoJvk-114" edge="1">
          <mxGeometry relative="1" as="geometry" />
        </mxCell>
        <mxCell id="8D5OD1Dsjr757IrfoJvk-110" value="No" style="edgeLabel;html=1;align=center;verticalAlign=middle;resizable=0;points=[];" parent="8D5OD1Dsjr757IrfoJvk-109" vertex="1" connectable="0">
          <mxGeometry x="-0.229" relative="1" as="geometry">
            <mxPoint as="offset" />
          </mxGeometry>
        </mxCell>
        <mxCell id="8D5OD1Dsjr757IrfoJvk-111" value="" style="edgeStyle=orthogonalEdgeStyle;rounded=0;orthogonalLoop=1;jettySize=auto;html=1;" parent="WIyWlLk6GJQsqaUBKTNV-1" source="8D5OD1Dsjr757IrfoJvk-113" target="8D5OD1Dsjr757IrfoJvk-115" edge="1">
          <mxGeometry relative="1" as="geometry" />
        </mxCell>
        <mxCell id="8D5OD1Dsjr757IrfoJvk-112" value="Yes" style="edgeLabel;html=1;align=center;verticalAlign=middle;resizable=0;points=[];" parent="8D5OD1Dsjr757IrfoJvk-111" vertex="1" connectable="0">
          <mxGeometry x="-0.2573" y="-1" relative="1" as="geometry">
            <mxPoint as="offset" />
          </mxGeometry>
        </mxCell>
        <mxCell id="8D5OD1Dsjr757IrfoJvk-113" value="&lt;font style=&quot;font-size: 9px;&quot;&gt;Was uploading successfull?&lt;/font&gt;" style="rhombus;whiteSpace=wrap;html=1;" parent="WIyWlLk6GJQsqaUBKTNV-1" vertex="1">
          <mxGeometry x="-193.25" y="1300" width="104.5" height="70" as="geometry" />
        </mxCell>
        <mxCell id="8D5OD1Dsjr757IrfoJvk-114" value="&lt;font style=&quot;font-size: 9px;&quot;&gt;Info-text about unsuccessfull changes&lt;/font&gt;" style="rounded=1;whiteSpace=wrap;html=1;" parent="WIyWlLk6GJQsqaUBKTNV-1" vertex="1">
          <mxGeometry x="-20" y="1305" width="74" height="60" as="geometry" />
        </mxCell>
        <mxCell id="8D5OD1Dsjr757IrfoJvk-115" value="&lt;font style=&quot;font-size: 9px;&quot;&gt;Info-text about successfull changes&lt;/font&gt;" style="rounded=1;whiteSpace=wrap;html=1;" parent="WIyWlLk6GJQsqaUBKTNV-1" vertex="1">
          <mxGeometry x="-181.5" y="1420" width="81" height="60" as="geometry" />
        </mxCell>
        <mxCell id="8D5OD1Dsjr757IrfoJvk-116" style="edgeStyle=orthogonalEdgeStyle;rounded=0;orthogonalLoop=1;jettySize=auto;html=1;entryX=0.5;entryY=0;entryDx=0;entryDy=0;" parent="WIyWlLk6GJQsqaUBKTNV-1" source="8D5OD1Dsjr757IrfoJvk-117" target="8D5OD1Dsjr757IrfoJvk-121" edge="1">
          <mxGeometry relative="1" as="geometry" />
        </mxCell>
        <mxCell id="8D5OD1Dsjr757IrfoJvk-117" value="&lt;font style=&quot;font-size: 9px;&quot;&gt;Send response with &lt;span style=&quot;color: rgb(255, 153, 51);&quot;&gt;array of languages_topic&amp;nbsp;&lt;/span&gt;to the browser&lt;/font&gt;" style="shape=process;whiteSpace=wrap;html=1;backgroundOutline=1;" parent="WIyWlLk6GJQsqaUBKTNV-1" vertex="1">
          <mxGeometry x="536" y="840" width="135" height="60" as="geometry" />
        </mxCell>
        <mxCell id="8D5OD1Dsjr757IrfoJvk-118" style="edgeStyle=orthogonalEdgeStyle;rounded=0;orthogonalLoop=1;jettySize=auto;html=1;entryX=0.5;entryY=0;entryDx=0;entryDy=0;" parent="WIyWlLk6GJQsqaUBKTNV-1" source="8D5OD1Dsjr757IrfoJvk-119" target="8D5OD1Dsjr757IrfoJvk-124" edge="1">
          <mxGeometry relative="1" as="geometry" />
        </mxCell>
        <mxCell id="8D5OD1Dsjr757IrfoJvk-119" value="&lt;font style=&quot;font-size: 9px;&quot;&gt;Form the UNACTIVE list with all RELATED topics to selected programming language&lt;/font&gt;" style="shape=process;whiteSpace=wrap;html=1;backgroundOutline=1;" parent="WIyWlLk6GJQsqaUBKTNV-1" vertex="1">
          <mxGeometry x="516.5" y="1000" width="175" height="70" as="geometry" />
        </mxCell>
        <mxCell id="8D5OD1Dsjr757IrfoJvk-120" style="edgeStyle=orthogonalEdgeStyle;rounded=0;orthogonalLoop=1;jettySize=auto;html=1;entryX=0.5;entryY=0;entryDx=0;entryDy=0;" parent="WIyWlLk6GJQsqaUBKTNV-1" source="8D5OD1Dsjr757IrfoJvk-121" target="8D5OD1Dsjr757IrfoJvk-119" edge="1">
          <mxGeometry relative="1" as="geometry" />
        </mxCell>
        <mxCell id="8D5OD1Dsjr757IrfoJvk-121" value="&lt;font style=&quot;font-size: 9px;&quot;&gt;Form the dropdown menu with selected option = selected programming language&lt;/font&gt;" style="shape=process;whiteSpace=wrap;html=1;backgroundOutline=1;" parent="WIyWlLk6GJQsqaUBKTNV-1" vertex="1">
          <mxGeometry x="525" y="920" width="158" height="50" as="geometry" />
        </mxCell>
        <mxCell id="8D5OD1Dsjr757IrfoJvk-163" style="edgeStyle=orthogonalEdgeStyle;rounded=0;orthogonalLoop=1;jettySize=auto;html=1;entryX=0;entryY=0.5;entryDx=0;entryDy=0;" parent="WIyWlLk6GJQsqaUBKTNV-1" source="8D5OD1Dsjr757IrfoJvk-124" target="8D5OD1Dsjr757IrfoJvk-161" edge="1">
          <mxGeometry relative="1" as="geometry" />
        </mxCell>
        <mxCell id="8D5OD1Dsjr757IrfoJvk-164" value="No" style="edgeLabel;html=1;align=center;verticalAlign=middle;resizable=0;points=[];" parent="8D5OD1Dsjr757IrfoJvk-163" vertex="1" connectable="0">
          <mxGeometry x="-0.1491" y="-1" relative="1" as="geometry">
            <mxPoint x="3" y="1" as="offset" />
          </mxGeometry>
        </mxCell>
        <mxCell id="8D5OD1Dsjr757IrfoJvk-174" style="edgeStyle=orthogonalEdgeStyle;rounded=0;orthogonalLoop=1;jettySize=auto;html=1;" parent="WIyWlLk6GJQsqaUBKTNV-1" source="8D5OD1Dsjr757IrfoJvk-124" edge="1">
          <mxGeometry relative="1" as="geometry">
            <mxPoint x="604" y="1220" as="targetPoint" />
          </mxGeometry>
        </mxCell>
        <mxCell id="8D5OD1Dsjr757IrfoJvk-124" value="Did admin сhoosed&amp;nbsp;&lt;div&gt;Delete button?&lt;/div&gt;" style="rhombus;whiteSpace=wrap;html=1;" parent="WIyWlLk6GJQsqaUBKTNV-1" vertex="1">
          <mxGeometry x="539" y="1099" width="130" height="101" as="geometry" />
        </mxCell>
        <mxCell id="8D5OD1Dsjr757IrfoJvk-130" style="edgeStyle=orthogonalEdgeStyle;rounded=0;orthogonalLoop=1;jettySize=auto;html=1;entryX=0.5;entryY=0;entryDx=0;entryDy=0;exitX=0;exitY=0.5;exitDx=0;exitDy=0;" parent="WIyWlLk6GJQsqaUBKTNV-1" source="8D5OD1Dsjr757IrfoJvk-134" target="8D5OD1Dsjr757IrfoJvk-106" edge="1">
          <mxGeometry relative="1" as="geometry" />
        </mxCell>
        <mxCell id="8D5OD1Dsjr757IrfoJvk-131" value="Yes" style="edgeLabel;html=1;align=center;verticalAlign=middle;resizable=0;points=[];" parent="8D5OD1Dsjr757IrfoJvk-130" vertex="1" connectable="0">
          <mxGeometry x="-0.3613" y="-1" relative="1" as="geometry">
            <mxPoint as="offset" />
          </mxGeometry>
        </mxCell>
        <mxCell id="8D5OD1Dsjr757IrfoJvk-132" style="edgeStyle=orthogonalEdgeStyle;rounded=0;orthogonalLoop=1;jettySize=auto;html=1;entryX=0.5;entryY=0;entryDx=0;entryDy=0;exitX=1;exitY=0.5;exitDx=0;exitDy=0;" parent="WIyWlLk6GJQsqaUBKTNV-1" source="8D5OD1Dsjr757IrfoJvk-134" target="8D5OD1Dsjr757IrfoJvk-135" edge="1">
          <mxGeometry relative="1" as="geometry" />
        </mxCell>
        <mxCell id="8D5OD1Dsjr757IrfoJvk-133" value="No" style="edgeLabel;html=1;align=center;verticalAlign=middle;resizable=0;points=[];" parent="8D5OD1Dsjr757IrfoJvk-132" vertex="1" connectable="0">
          <mxGeometry x="-0.5209" y="-1" relative="1" as="geometry">
            <mxPoint as="offset" />
          </mxGeometry>
        </mxCell>
        <mxCell id="8D5OD1Dsjr757IrfoJvk-134" value="&lt;font style=&quot;font-size: 9px;&quot;&gt;Did admin change&lt;/font&gt;&lt;div&gt;&lt;font style=&quot;font-size: 9px;&quot;&gt;&amp;nbsp;programming language&#39;s&lt;/font&gt;&lt;/div&gt;&lt;div&gt;&lt;font style=&quot;font-size: 9px;&quot;&gt;&amp;nbsp;name?&lt;/font&gt;&lt;/div&gt;" style="rhombus;whiteSpace=wrap;html=1;" parent="WIyWlLk6GJQsqaUBKTNV-1" vertex="1">
          <mxGeometry x="104.5" y="1030" width="151" height="80" as="geometry" />
        </mxCell>
        <mxCell id="8D5OD1Dsjr757IrfoJvk-155" style="edgeStyle=orthogonalEdgeStyle;rounded=0;orthogonalLoop=1;jettySize=auto;html=1;entryX=0.5;entryY=0;entryDx=0;entryDy=0;" parent="WIyWlLk6GJQsqaUBKTNV-1" source="8D5OD1Dsjr757IrfoJvk-135" target="8D5OD1Dsjr757IrfoJvk-147" edge="1">
          <mxGeometry relative="1" as="geometry" />
        </mxCell>
        <mxCell id="8D5OD1Dsjr757IrfoJvk-156" value="Yes" style="edgeLabel;html=1;align=center;verticalAlign=middle;resizable=0;points=[];" parent="8D5OD1Dsjr757IrfoJvk-155" vertex="1" connectable="0">
          <mxGeometry x="-0.0869" relative="1" as="geometry">
            <mxPoint as="offset" />
          </mxGeometry>
        </mxCell>
        <mxCell id="8D5OD1Dsjr757IrfoJvk-159" style="edgeStyle=orthogonalEdgeStyle;rounded=0;orthogonalLoop=1;jettySize=auto;html=1;entryX=0.5;entryY=1;entryDx=0;entryDy=0;exitX=0;exitY=0.5;exitDx=0;exitDy=0;" parent="WIyWlLk6GJQsqaUBKTNV-1" source="8D5OD1Dsjr757IrfoJvk-135" target="8D5OD1Dsjr757IrfoJvk-134" edge="1">
          <mxGeometry relative="1" as="geometry">
            <Array as="points">
              <mxPoint x="274" y="1150" />
              <mxPoint x="180" y="1150" />
            </Array>
          </mxGeometry>
        </mxCell>
        <mxCell id="8D5OD1Dsjr757IrfoJvk-160" value="No" style="edgeLabel;html=1;align=center;verticalAlign=middle;resizable=0;points=[];" parent="8D5OD1Dsjr757IrfoJvk-159" vertex="1" connectable="0">
          <mxGeometry x="-0.2495" y="-4" relative="1" as="geometry">
            <mxPoint x="1" as="offset" />
          </mxGeometry>
        </mxCell>
        <mxCell id="8D5OD1Dsjr757IrfoJvk-135" value="&lt;font style=&quot;font-size: 9px;&quot;&gt;Did admin select&amp;nbsp;&lt;b style=&quot;&quot;&gt;Edit&lt;/b&gt;&amp;nbsp;&lt;/font&gt;&lt;div&gt;&lt;font style=&quot;font-size: 9px;&quot;&gt;and&amp;nbsp;changed&amp;nbsp;&lt;span style=&quot;background-color: transparent; color: light-dark(rgb(0, 0, 0), rgb(255, 255, 255));&quot;&gt;only&amp;nbsp;&lt;/span&gt;&lt;/font&gt;&lt;div&gt;&lt;div&gt;&lt;font size=&quot;1&quot;&gt;selected topics?&lt;/font&gt;&lt;/div&gt;&lt;/div&gt;&lt;/div&gt;" style="rhombus;whiteSpace=wrap;html=1;" parent="WIyWlLk6GJQsqaUBKTNV-1" vertex="1">
          <mxGeometry x="274" y="1120" width="170" height="90" as="geometry" />
        </mxCell>
        <mxCell id="8D5OD1Dsjr757IrfoJvk-144" style="edgeStyle=orthogonalEdgeStyle;rounded=0;orthogonalLoop=1;jettySize=auto;html=1;" parent="WIyWlLk6GJQsqaUBKTNV-1" source="8D5OD1Dsjr757IrfoJvk-136" target="8D5OD1Dsjr757IrfoJvk-142" edge="1">
          <mxGeometry relative="1" as="geometry" />
        </mxCell>
        <mxCell id="8D5OD1Dsjr757IrfoJvk-136" value="&lt;span style=&quot;font-size: 9px;&quot;&gt;Query to the DB to the tables &quot;&lt;font style=&quot;color: rgb(51, 153, 255);&quot;&gt;&lt;b&gt;languages&lt;/b&gt;&lt;/font&gt;&quot; and&amp;nbsp;&lt;/span&gt;&lt;span style=&quot;font-size: 9px;&quot;&gt;&quot;&lt;/span&gt;&lt;font style=&quot;font-size: 9px; color: rgb(51, 153, 255);&quot;&gt;&lt;b&gt;languages_topic&lt;/b&gt;&lt;/font&gt;&lt;span style=&quot;font-size: 9px;&quot;&gt;&quot;&lt;/span&gt;&lt;span style=&quot;font-size: 9px;&quot;&gt;&amp;nbsp;with the new name for &quot;language_name&quot; and new array of related topics!&lt;br&gt;&lt;/span&gt;" style="shape=process;whiteSpace=wrap;html=1;backgroundOutline=1;" parent="WIyWlLk6GJQsqaUBKTNV-1" vertex="1">
          <mxGeometry x="114.5" y="1230" width="150" height="100" as="geometry" />
        </mxCell>
        <mxCell id="8D5OD1Dsjr757IrfoJvk-140" value="" style="edgeStyle=orthogonalEdgeStyle;rounded=0;orthogonalLoop=1;jettySize=auto;html=1;" parent="WIyWlLk6GJQsqaUBKTNV-1" source="8D5OD1Dsjr757IrfoJvk-142" target="8D5OD1Dsjr757IrfoJvk-143" edge="1">
          <mxGeometry relative="1" as="geometry" />
        </mxCell>
        <mxCell id="8D5OD1Dsjr757IrfoJvk-141" value="Yes" style="edgeLabel;html=1;align=center;verticalAlign=middle;resizable=0;points=[];" parent="8D5OD1Dsjr757IrfoJvk-140" vertex="1" connectable="0">
          <mxGeometry x="-0.2573" y="-1" relative="1" as="geometry">
            <mxPoint as="offset" />
          </mxGeometry>
        </mxCell>
        <mxCell id="8D5OD1Dsjr757IrfoJvk-145" style="edgeStyle=orthogonalEdgeStyle;rounded=0;orthogonalLoop=1;jettySize=auto;html=1;entryX=1;entryY=0.5;entryDx=0;entryDy=0;" parent="WIyWlLk6GJQsqaUBKTNV-1" source="8D5OD1Dsjr757IrfoJvk-142" target="8D5OD1Dsjr757IrfoJvk-114" edge="1">
          <mxGeometry relative="1" as="geometry" />
        </mxCell>
        <mxCell id="8D5OD1Dsjr757IrfoJvk-146" value="No" style="edgeLabel;html=1;align=center;verticalAlign=middle;resizable=0;points=[];" parent="8D5OD1Dsjr757IrfoJvk-145" vertex="1" connectable="0">
          <mxGeometry x="-0.6819" y="2" relative="1" as="geometry">
            <mxPoint as="offset" />
          </mxGeometry>
        </mxCell>
        <mxCell id="8D5OD1Dsjr757IrfoJvk-142" value="&lt;font style=&quot;font-size: 9px;&quot;&gt;Was uploading successfull?&lt;/font&gt;" style="rhombus;whiteSpace=wrap;html=1;" parent="WIyWlLk6GJQsqaUBKTNV-1" vertex="1">
          <mxGeometry x="137.25" y="1350" width="104.5" height="70" as="geometry" />
        </mxCell>
        <mxCell id="8D5OD1Dsjr757IrfoJvk-143" value="&lt;font style=&quot;font-size: 9px;&quot;&gt;Info-text about successfull changes&lt;/font&gt;" style="rounded=1;whiteSpace=wrap;html=1;" parent="WIyWlLk6GJQsqaUBKTNV-1" vertex="1">
          <mxGeometry x="149" y="1460" width="81" height="60" as="geometry" />
        </mxCell>
        <mxCell id="8D5OD1Dsjr757IrfoJvk-150" style="edgeStyle=orthogonalEdgeStyle;rounded=0;orthogonalLoop=1;jettySize=auto;html=1;entryX=0.5;entryY=0;entryDx=0;entryDy=0;" parent="WIyWlLk6GJQsqaUBKTNV-1" source="8D5OD1Dsjr757IrfoJvk-147" target="8D5OD1Dsjr757IrfoJvk-148" edge="1">
          <mxGeometry relative="1" as="geometry" />
        </mxCell>
        <mxCell id="8D5OD1Dsjr757IrfoJvk-147" value="&lt;span style=&quot;font-size: 9px;&quot;&gt;Query to the DB to the table&amp;nbsp;&lt;/span&gt;&lt;span style=&quot;font-size: 9px;&quot;&gt;&quot;&lt;/span&gt;&lt;font style=&quot;font-size: 9px; color: rgb(51, 153, 255);&quot;&gt;&lt;b&gt;languages_topic&lt;/b&gt;&lt;/font&gt;&lt;span style=&quot;font-size: 9px;&quot;&gt;&quot;&lt;/span&gt;&lt;span style=&quot;font-size: 9px;&quot;&gt;&amp;nbsp;&lt;/span&gt;&lt;div&gt;&lt;span style=&quot;font-size: 9px;&quot;&gt;with new array of topics!&lt;br&gt;&lt;/span&gt;&lt;/div&gt;" style="shape=process;whiteSpace=wrap;html=1;backgroundOutline=1;" parent="WIyWlLk6GJQsqaUBKTNV-1" vertex="1">
          <mxGeometry x="290" y="1250" width="140" height="70" as="geometry" />
        </mxCell>
        <mxCell id="8D5OD1Dsjr757IrfoJvk-149" style="edgeStyle=orthogonalEdgeStyle;rounded=0;orthogonalLoop=1;jettySize=auto;html=1;entryX=1;entryY=0.5;entryDx=0;entryDy=0;" parent="WIyWlLk6GJQsqaUBKTNV-1" source="8D5OD1Dsjr757IrfoJvk-148" target="8D5OD1Dsjr757IrfoJvk-143" edge="1">
          <mxGeometry relative="1" as="geometry" />
        </mxCell>
        <mxCell id="8D5OD1Dsjr757IrfoJvk-151" value="Yes" style="edgeLabel;html=1;align=center;verticalAlign=middle;resizable=0;points=[];" parent="8D5OD1Dsjr757IrfoJvk-149" vertex="1" connectable="0">
          <mxGeometry x="0.0201" relative="1" as="geometry">
            <mxPoint as="offset" />
          </mxGeometry>
        </mxCell>
        <mxCell id="8D5OD1Dsjr757IrfoJvk-153" style="edgeStyle=orthogonalEdgeStyle;rounded=0;orthogonalLoop=1;jettySize=auto;html=1;exitX=0.5;exitY=1;exitDx=0;exitDy=0;" parent="WIyWlLk6GJQsqaUBKTNV-1" source="8D5OD1Dsjr757IrfoJvk-148" target="8D5OD1Dsjr757IrfoJvk-152" edge="1">
          <mxGeometry relative="1" as="geometry" />
        </mxCell>
        <mxCell id="8D5OD1Dsjr757IrfoJvk-154" value="No" style="edgeLabel;html=1;align=center;verticalAlign=middle;resizable=0;points=[];" parent="8D5OD1Dsjr757IrfoJvk-153" vertex="1" connectable="0">
          <mxGeometry x="-0.2267" y="-1" relative="1" as="geometry">
            <mxPoint y="1" as="offset" />
          </mxGeometry>
        </mxCell>
        <mxCell id="8D5OD1Dsjr757IrfoJvk-148" value="&lt;font style=&quot;font-size: 9px;&quot;&gt;Was uploading successfull?&lt;/font&gt;" style="rhombus;whiteSpace=wrap;html=1;" parent="WIyWlLk6GJQsqaUBKTNV-1" vertex="1">
          <mxGeometry x="307.75" y="1350" width="104.5" height="70" as="geometry" />
        </mxCell>
        <mxCell id="8D5OD1Dsjr757IrfoJvk-152" value="&lt;font style=&quot;font-size: 9px;&quot;&gt;Info-text about unsuccessfull changes&lt;/font&gt;" style="rounded=1;whiteSpace=wrap;html=1;" parent="WIyWlLk6GJQsqaUBKTNV-1" vertex="1">
          <mxGeometry x="323" y="1470" width="74" height="60" as="geometry" />
        </mxCell>
        <mxCell id="8D5OD1Dsjr757IrfoJvk-162" style="edgeStyle=orthogonalEdgeStyle;rounded=0;orthogonalLoop=1;jettySize=auto;html=1;entryX=1;entryY=0.5;entryDx=0;entryDy=0;" parent="WIyWlLk6GJQsqaUBKTNV-1" source="8D5OD1Dsjr757IrfoJvk-161" target="8D5OD1Dsjr757IrfoJvk-101" edge="1">
          <mxGeometry relative="1" as="geometry">
            <Array as="points">
              <mxPoint x="760" y="780" />
            </Array>
          </mxGeometry>
        </mxCell>
        <mxCell id="8D5OD1Dsjr757IrfoJvk-161" value="Did admin&amp;nbsp;&lt;div&gt;choosed another language?&lt;/div&gt;" style="rhombus;whiteSpace=wrap;html=1;" parent="WIyWlLk6GJQsqaUBKTNV-1" vertex="1">
          <mxGeometry x="700" y="1099.5" width="120" height="100.5" as="geometry" />
        </mxCell>
        <mxCell id="8D5OD1Dsjr757IrfoJvk-182" style="edgeStyle=orthogonalEdgeStyle;rounded=0;orthogonalLoop=1;jettySize=auto;html=1;entryX=0.5;entryY=0;entryDx=0;entryDy=0;" parent="WIyWlLk6GJQsqaUBKTNV-1" source="8D5OD1Dsjr757IrfoJvk-165" target="8D5OD1Dsjr757IrfoJvk-180" edge="1">
          <mxGeometry relative="1" as="geometry" />
        </mxCell>
        <mxCell id="8D5OD1Dsjr757IrfoJvk-165" value="&lt;div&gt;&lt;span style=&quot;font-size: 9px;&quot;&gt;SQL request to the DB to the tables &quot;&lt;font style=&quot;color: rgb(51, 153, 255);&quot;&gt;&lt;b&gt;languages&lt;/b&gt;&lt;/font&gt;&quot;,&amp;nbsp;&lt;/span&gt;&lt;/div&gt;&lt;div&gt;&lt;span style=&quot;background-color: transparent; color: light-dark(rgb(0, 0, 0), rgb(255, 255, 255)); font-size: 9px;&quot;&gt;&quot;&lt;/span&gt;&lt;font style=&quot;background-color: transparent; font-size: 9px; color: rgb(51, 153, 255);&quot;&gt;&lt;b&gt;languages_topic&lt;/b&gt;&lt;/font&gt;&lt;span style=&quot;background-color: transparent; color: light-dark(rgb(0, 0, 0), rgb(255, 255, 255)); font-size: 9px;&quot;&gt;&quot;, &quot;&lt;b&gt;&lt;font style=&quot;color: rgb(51, 153, 255);&quot;&gt;questions&lt;/font&gt;&lt;/b&gt;&quot;, &quot;&lt;font style=&quot;color: rgb(51, 153, 255);&quot;&gt;&lt;b&gt;answers&lt;/b&gt;&lt;/font&gt;&quot;&lt;/span&gt;&lt;span style=&quot;background-color: transparent; color: light-dark(rgb(0, 0, 0), rgb(255, 255, 255)); font-size: 9px;&quot;&gt;&amp;nbsp;to delete all record for selected language!&lt;/span&gt;&lt;/div&gt;" style="shape=process;whiteSpace=wrap;html=1;backgroundOutline=1;" parent="WIyWlLk6GJQsqaUBKTNV-1" vertex="1">
          <mxGeometry x="669" y="1450" width="140" height="100" as="geometry" />
        </mxCell>
        <mxCell id="8D5OD1Dsjr757IrfoJvk-175" style="edgeStyle=orthogonalEdgeStyle;rounded=0;orthogonalLoop=1;jettySize=auto;html=1;entryX=0.5;entryY=0;entryDx=0;entryDy=0;" parent="WIyWlLk6GJQsqaUBKTNV-1" source="8D5OD1Dsjr757IrfoJvk-167" target="8D5OD1Dsjr757IrfoJvk-168" edge="1">
          <mxGeometry relative="1" as="geometry" />
        </mxCell>
        <mxCell id="8D5OD1Dsjr757IrfoJvk-167" value="Push up window with Warning" style="shape=process;whiteSpace=wrap;html=1;backgroundOutline=1;" parent="WIyWlLk6GJQsqaUBKTNV-1" vertex="1">
          <mxGeometry x="520" y="1220" width="170" height="70" as="geometry" />
        </mxCell>
        <mxCell id="8D5OD1Dsjr757IrfoJvk-169" style="edgeStyle=orthogonalEdgeStyle;rounded=0;orthogonalLoop=1;jettySize=auto;html=1;entryX=0.5;entryY=0;entryDx=0;entryDy=0;exitX=1;exitY=0.5;exitDx=0;exitDy=0;" parent="WIyWlLk6GJQsqaUBKTNV-1" source="8D5OD1Dsjr757IrfoJvk-168" target="8D5OD1Dsjr757IrfoJvk-165" edge="1">
          <mxGeometry relative="1" as="geometry" />
        </mxCell>
        <mxCell id="8D5OD1Dsjr757IrfoJvk-171" value="Yes" style="edgeLabel;html=1;align=center;verticalAlign=middle;resizable=0;points=[];" parent="8D5OD1Dsjr757IrfoJvk-169" vertex="1" connectable="0">
          <mxGeometry x="-0.6074" y="-1" relative="1" as="geometry">
            <mxPoint x="-1" as="offset" />
          </mxGeometry>
        </mxCell>
        <mxCell id="8D5OD1Dsjr757IrfoJvk-172" style="edgeStyle=orthogonalEdgeStyle;rounded=0;orthogonalLoop=1;jettySize=auto;html=1;entryX=0;entryY=0.5;entryDx=0;entryDy=0;exitX=0;exitY=0.5;exitDx=0;exitDy=0;" parent="WIyWlLk6GJQsqaUBKTNV-1" source="8D5OD1Dsjr757IrfoJvk-168" target="8D5OD1Dsjr757IrfoJvk-124" edge="1">
          <mxGeometry relative="1" as="geometry">
            <Array as="points">
              <mxPoint x="490" y="1380" />
              <mxPoint x="490" y="1150" />
            </Array>
          </mxGeometry>
        </mxCell>
        <mxCell id="8D5OD1Dsjr757IrfoJvk-173" value="No" style="edgeLabel;html=1;align=center;verticalAlign=middle;resizable=0;points=[];" parent="8D5OD1Dsjr757IrfoJvk-172" vertex="1" connectable="0">
          <mxGeometry x="-0.8419" y="-1" relative="1" as="geometry">
            <mxPoint x="-1" as="offset" />
          </mxGeometry>
        </mxCell>
        <mxCell id="8D5OD1Dsjr757IrfoJvk-168" value="Did admin selected Delete-button?" style="rhombus;whiteSpace=wrap;html=1;" parent="WIyWlLk6GJQsqaUBKTNV-1" vertex="1">
          <mxGeometry x="533.25" y="1330" width="143.5" height="100" as="geometry" />
        </mxCell>
        <mxCell id="8D5OD1Dsjr757IrfoJvk-178" style="edgeStyle=orthogonalEdgeStyle;rounded=0;orthogonalLoop=1;jettySize=auto;html=1;exitX=0.5;exitY=1;exitDx=0;exitDy=0;" parent="WIyWlLk6GJQsqaUBKTNV-1" source="8D5OD1Dsjr757IrfoJvk-180" target="8D5OD1Dsjr757IrfoJvk-181" edge="1">
          <mxGeometry relative="1" as="geometry" />
        </mxCell>
        <mxCell id="8D5OD1Dsjr757IrfoJvk-179" value="No" style="edgeLabel;html=1;align=center;verticalAlign=middle;resizable=0;points=[];" parent="8D5OD1Dsjr757IrfoJvk-178" vertex="1" connectable="0">
          <mxGeometry x="-0.2267" y="-1" relative="1" as="geometry">
            <mxPoint y="1" as="offset" />
          </mxGeometry>
        </mxCell>
        <mxCell id="8D5OD1Dsjr757IrfoJvk-184" style="edgeStyle=orthogonalEdgeStyle;rounded=0;orthogonalLoop=1;jettySize=auto;html=1;entryX=1;entryY=0.5;entryDx=0;entryDy=0;" parent="WIyWlLk6GJQsqaUBKTNV-1" source="8D5OD1Dsjr757IrfoJvk-180" target="8D5OD1Dsjr757IrfoJvk-183" edge="1">
          <mxGeometry relative="1" as="geometry" />
        </mxCell>
        <mxCell id="8D5OD1Dsjr757IrfoJvk-185" value="Yes" style="edgeLabel;html=1;align=center;verticalAlign=middle;resizable=0;points=[];" parent="8D5OD1Dsjr757IrfoJvk-184" vertex="1" connectable="0">
          <mxGeometry x="-0.295" y="1" relative="1" as="geometry">
            <mxPoint as="offset" />
          </mxGeometry>
        </mxCell>
        <mxCell id="8D5OD1Dsjr757IrfoJvk-180" value="&lt;font style=&quot;font-size: 9px;&quot;&gt;Was uploading successfull?&lt;/font&gt;" style="rhombus;whiteSpace=wrap;html=1;" parent="WIyWlLk6GJQsqaUBKTNV-1" vertex="1">
          <mxGeometry x="523.89" y="1590" width="104.5" height="70" as="geometry" />
        </mxCell>
        <mxCell id="8D5OD1Dsjr757IrfoJvk-181" value="&lt;font style=&quot;font-size: 9px;&quot;&gt;Info-text about unsuccessfull changes&lt;/font&gt;" style="rounded=1;whiteSpace=wrap;html=1;" parent="WIyWlLk6GJQsqaUBKTNV-1" vertex="1">
          <mxGeometry x="539.14" y="1710" width="74" height="60" as="geometry" />
        </mxCell>
        <mxCell id="8D5OD1Dsjr757IrfoJvk-183" value="&lt;font style=&quot;font-size: 9px;&quot;&gt;Info-text about successfull changes&lt;/font&gt;" style="rounded=1;whiteSpace=wrap;html=1;" parent="WIyWlLk6GJQsqaUBKTNV-1" vertex="1">
          <mxGeometry x="389.5" y="1595" width="81" height="60" as="geometry" />
        </mxCell>
      </root>
    </mxGraphModel>
  </diagram>
</mxfile>
